<svg aria-hidden="true" xmlns="http://www.w3.org/2000/svg" xmlns:xlink="http://www.w3.org/1999/xlink"><symbol viewBox="0 0 7 4" id="arrow-down-icon" xmlns="http://www.w3.org/2000/svg">
<path d="M5.7166 0L3.23887 2.47233L0.761134 0L0 0.761134L3.23887 4L6.47773 0.761134L5.7166 0Z"/>
</symbol><symbol viewBox="0 0 21 20" id="basket-icon" xmlns="http://www.w3.org/2000/svg">
<path d="M14.55 11C15.3 11 15.96 10.59 16.3 9.97L19.88 3.48C20.25 2.82 19.77 2 19.01 2H4.21L3.27 0H0V2H2L5.6 9.59L4.25 12.03C3.52 13.37 4.48 15 6 15H18V13H6L7.1 11H14.55ZM5.16 4H17.31L14.55 9H7.53L5.16 4ZM6 16C4.9 16 4.01 16.9 4.01 18C4.01 19.1 4.9 20 6 20C7.1 20 8 19.1 8 18C8 16.9 7.1 16 6 16ZM16 16C14.9 16 14.01 16.9 14.01 18C14.01 19.1 14.9 20 16 20C17.1 20 18 19.1 18 18C18 16.9 17.1 16 16 16Z"/>
</symbol><symbol viewBox="0 0 18 18" id="black-tel-icon" xmlns="http://www.w3.org/2000/svg">
<path d="M12 9H14C14 6.24 11.76 4 9 4V6C10.66 6 12 7.34 12 9ZM16 9H18C18 4.03 13.97 0 9 0V2C12.87 2 16 5.13 16 9ZM17 12.5C15.75 12.5 14.55 12.3 13.43 11.93C13.33 11.9 13.22 11.88 13.12 11.88C12.86 11.88 12.61 11.98 12.41 12.17L10.21 14.37C7.38 12.93 5.06 10.62 3.62 7.78L5.82 5.57C6.1 5.31 6.18 4.92 6.07 4.57C5.7 3.45 5.5 2.25 5.5 1C5.5 0.45 5.05 0 4.5 0H1C0.45 0 0 0.45 0 1C0 10.39 7.61 18 17 18C17.55 18 18 17.55 18 17V13.5C18 12.95 17.55 12.5 17 12.5ZM2.03 2H3.53C3.6 2.88 3.75 3.75 3.98 4.58L2.78 5.79C2.38 4.58 2.12 3.32 2.03 2ZM16 15.97C14.68 15.88 13.4 15.62 12.2 15.21L13.4 14.01C14.25 14.25 15.12 14.4 16 14.46V15.97Z"/>
</symbol><symbol viewBox="0 0 18 18" id="facebook-icon" xmlns="http://www.w3.org/2000/svg">
<path d="M15.3633 0H2.63672C1.18295 0 0 1.18295 0 2.63672V15.3633C0 16.817 1.18295 18 2.63672 18H7.94531V11.6367H5.83594V8.47266H7.94531V6.32812C7.94531 4.58336 9.36461 3.16406 11.1094 3.16406H14.3086V6.32812H11.1094V8.47266H14.3086L13.7812 11.6367H11.1094V18H15.3633C16.817 18 18 16.817 18 15.3633V2.63672C18 1.18295 16.817 0 15.3633 0Z"/>
</symbol><symbol viewBox="0 0 20 19" id="heart-icon" xmlns="http://www.w3.org/2000/svg">
<path d="M14.5 0C12.76 0 11.09 0.81 10 2.09C8.91 0.81 7.24 0 5.5 0C2.42 0 0 2.42 0 5.5C0 9.28 3.4 12.36 8.55 17.04L10 18.35L11.45 17.03C16.6 12.36 20 9.28 20 5.5C20 2.42 17.58 0 14.5 0ZM10.1 15.55L10 15.65L9.9 15.55C5.14 11.24 2 8.39 2 5.5C2 3.5 3.5 2 5.5 2C7.04 2 8.54 2.99 9.07 4.36H10.94C11.46 2.99 12.96 2 14.5 2C16.5 2 18 3.5 18 5.5C18 8.39 14.86 11.24 10.1 15.55Z"/>
</symbol><symbol viewBox="0 0 18 18" id="linked-icon" xmlns="http://www.w3.org/2000/svg">
<path d="M15.3633 0H2.63672C1.18295 0 0 1.18295 0 2.63672V15.3633C0 16.817 1.18295 18 2.63672 18H15.3633C16.817 18 18 16.817 18 15.3633V2.63672C18 1.18295 16.817 0 15.3633 0ZM6.36328 14.2734H4.25391V6.89062H6.36328V14.2734ZM6.36328 5.83594H4.25391V3.72656H6.36328V5.83594ZM13.7461 14.2734H11.6367V10.0547C11.6367 9.47324 11.1635 9 10.582 9C10.0006 9 9.52734 9.47324 9.52734 10.0547V14.2734H7.41797V6.89062H9.52734V7.28819C10.08 7.11639 10.4389 6.89062 11.1094 6.89062C12.5399 6.89214 13.7461 8.17548 13.7461 9.69214V14.2734Z"/>
</symbol><symbol viewBox="0 0 10 14" id="location-icon" xmlns="http://www.w3.org/2000/svg">
<path d="M4.9 0C2.191 0 0 2.191 0 4.9C0 8.575 4.9 14 4.9 14C4.9 14 9.8 8.575 9.8 4.9C9.8 2.191 7.609 0 4.9 0ZM1.4 4.9C1.4 2.968 2.968 1.4 4.9 1.4C6.832 1.4 8.4 2.968 8.4 4.9C8.4 6.916 6.384 9.933 4.9 11.816C3.444 9.947 1.4 6.895 1.4 4.9Z"/>
<path d="M4.90039 6.6499C5.86689 6.6499 6.65039 5.8664 6.65039 4.8999C6.65039 3.9334 5.86689 3.1499 4.90039 3.1499C3.93389 3.1499 3.15039 3.9334 3.15039 4.8999C3.15039 5.8664 3.93389 6.6499 4.90039 6.6499Z"/>
</symbol><symbol viewBox="0 0 20 16" id="mail-icon" xmlns="http://www.w3.org/2000/svg">
<path d="M20 2C20 0.9 19.1 0 18 0H2C0.9 0 0 0.9 0 2V14C0 15.1 0.9 16 2 16H18C19.1 16 20 15.1 20 14V2ZM18 2L10 7L2 2H18ZM18 14H2V4L10 9L18 4V14Z"/>
</symbol><symbol viewBox="0 0 14 3" id="minus-icon" xmlns="http://www.w3.org/2000/svg">
<path d="M1 1.56689H7.03448H13.069" stroke-width="1.5" stroke-linecap="round" stroke-linejoin="round"/>
</symbol><symbol viewBox="0 0 14 14" id="plus-icon" xmlns="http://www.w3.org/2000/svg">
<path d="M1 6.83333H7.03448M7.03448 6.83333H13.069M7.03448 6.83333V1M7.03448 6.83333V12.6667" stroke-width="1.5" stroke-linecap="round" stroke-linejoin="round"/>
</symbol><symbol viewBox="0 0 18 18" id="search-icon" xmlns="http://www.w3.org/2000/svg">
<path d="M12.5 11H11.71L11.43 10.73C12.41 9.59 13 8.11 13 6.5C13 2.91 10.09 0 6.5 0C2.91 0 0 2.91 0 6.5C0 10.09 2.91 13 6.5 13C8.11 13 9.59 12.41 10.73 11.43L11 11.71V12.5L16 17.49L17.49 16L12.5 11ZM6.5 11C4.01 11 2 8.99 2 6.5C2 4.01 4.01 2 6.5 2C8.99 2 11 4.01 11 6.5C11 8.99 8.99 11 6.5 11Z"/>
</symbol><symbol viewBox="0 0 18 18" id="tel-icon" xmlns="http://www.w3.org/2000/svg">
<path d="M9 0C4.0567 0 0 4.0567 0 9C0 10.6315 0.439865 12.2197 1.274 13.6092L0 18L4.39082 16.726C5.78032 17.5601 7.36853 18 9 18C13.9433 18 18 13.9433 18 9C18 4.0567 13.9433 0 9 0ZM14.6269 12.8028L14.2082 13.2215C13.6158 13.8139 12.2533 13.767 11.3779 13.5979C8.46689 13.0357 5.07307 9.74611 4.41856 6.89735C4.09447 5.48616 4.27341 4.25926 4.74142 3.79111L5.16014 3.37239C5.39127 3.1414 5.76672 3.14168 5.99757 3.37239L7.67271 5.04767C7.7845 5.15945 7.84575 5.30763 7.84575 5.46625C7.84575 5.62486 7.7845 5.77318 7.67271 5.88455L7.25414 6.30368C6.79271 6.7662 6.79271 7.51753 7.25414 7.97896L10.0204 10.7088C10.4832 11.1716 11.2321 11.1721 11.6956 10.7088L12.1143 10.2902C12.3305 10.0728 12.7343 10.0721 12.9522 10.2902L14.6269 11.9649C14.8543 12.1914 14.863 12.5666 14.6269 12.8028Z"/>
</symbol><symbol viewBox="0 0 18 16" id="twitter-icon" xmlns="http://www.w3.org/2000/svg">
<path d="M6.71526 15.3843C5.93687 15.3843 5.1357 15.3213 4.32971 15.1949C2.91014 14.9722 1.47313 14.2296 1.0665 14.0073L0 13.4242L1.15466 13.0445C2.41686 12.6295 3.18466 12.372 4.13512 11.9688C3.18343 11.5079 2.44995 10.6789 2.09688 9.60714L1.82826 8.79168L2.04854 8.82533C1.83966 8.6148 1.67473 8.40112 1.54688 8.2068C1.09218 7.51617 0.851441 6.67228 0.902664 5.94911L0.953201 5.23733L1.37933 5.4024C1.19957 5.06292 1.06966 4.70037 0.993302 4.32038C0.807221 3.39369 0.962952 2.40917 1.43193 1.54826L1.80313 0.866831L2.29958 1.46311C3.86966 3.34919 5.85832 4.46801 8.2186 4.79554C8.12219 4.13101 8.19443 3.48968 8.43352 2.91482C8.71188 2.24548 9.20709 1.6779 9.86517 1.27333C10.596 0.824122 11.4824 0.606455 12.3609 0.660426C13.2929 0.717692 14.1391 1.06692 14.8112 1.67103C15.1394 1.58575 15.3813 1.4947 15.7081 1.37165C15.9048 1.29763 16.1278 1.21359 16.4068 1.11746L17.4352 0.763148L16.7646 2.67834C16.8088 2.67463 16.8544 2.67147 16.9021 2.66941L18.0001 2.6197L17.3511 3.50671C17.3139 3.55752 17.3044 3.57194 17.2912 3.59185C17.2389 3.67068 17.1738 3.76873 16.283 4.95828C16.06 5.25614 15.9486 5.6441 15.9693 6.05087C16.0483 7.59664 15.8586 8.9952 15.4053 10.2075C14.9766 11.3545 14.3122 12.3386 13.4308 13.1325C12.3401 14.1147 10.9494 14.7872 9.29704 15.1311C8.48653 15.2997 7.61614 15.3843 6.71526 15.3843Z"/>
</symbol><symbol viewBox="0 0 16 16" id="user-icon" xmlns="http://www.w3.org/2000/svg">
<path d="M8 1.9C9.16 1.9 10.1 2.84 10.1 4C10.1 5.16 9.16 6.1 8 6.1C6.84 6.1 5.9 5.16 5.9 4C5.9 2.84 6.84 1.9 8 1.9ZM8 10.9C10.97 10.9 14.1 12.36 14.1 13V14.1H1.9V13C1.9 12.36 5.03 10.9 8 10.9ZM8 0C5.79 0 4 1.79 4 4C4 6.21 5.79 8 8 8C10.21 8 12 6.21 12 4C12 1.79 10.21 0 8 0ZM8 9C5.33 9 0 10.34 0 13V16H16V13C16 10.34 10.67 9 8 9Z"/>
</symbol></svg>