<svg aria-hidden="true" xmlns="http://www.w3.org/2000/svg" xmlns:xlink="http://www.w3.org/1999/xlink"><symbol viewBox="0 0 7 4" id="arrow-down-icon" xmlns="http://www.w3.org/2000/svg">
<path d="M5.7166 0L3.23887 2.47233L0.761134 0L0 0.761134L3.23887 4L6.47773 0.761134L5.7166 0Z"/>
</symbol><symbol viewBox="0 0 10 5" id="basket-arrow-icon" xmlns="http://www.w3.org/2000/svg">
<path d="M0.833008 0.333252L4.99967 4.49992L9.16634 0.333252H0.833008Z"/>
</symbol><symbol viewBox="0 0 21 20" id="basket-icon" xmlns="http://www.w3.org/2000/svg">
<path d="M14.55 11C15.3 11 15.96 10.59 16.3 9.97L19.88 3.48C20.25 2.82 19.77 2 19.01 2H4.21L3.27 0H0V2H2L5.6 9.59L4.25 12.03C3.52 13.37 4.48 15 6 15H18V13H6L7.1 11H14.55ZM5.16 4H17.31L14.55 9H7.53L5.16 4ZM6 16C4.9 16 4.01 16.9 4.01 18C4.01 19.1 4.9 20 6 20C7.1 20 8 19.1 8 18C8 16.9 7.1 16 6 16ZM16 16C14.9 16 14.01 16.9 14.01 18C14.01 19.1 14.9 20 16 20C17.1 20 18 19.1 18 18C18 16.9 17.1 16 16 16Z"/>
</symbol><symbol viewBox="0 0 60 60" id="beverages-icon" xmlns="http://www.w3.org/2000/svg">
<g clip-path="url(#dclip0_202_160)">
<path d="M59.4917 51.3558V55.4235C59.4917 57.6608 57.6612 59.4913 55.424 59.4913H54.4071C53.2884 59.4913 52.3731 58.4744 51.3562 57.4573C50.3393 58.4742 49.4241 59.4913 48.3054 59.4913H46.2714C45.1528 59.4913 44.2375 58.4744 43.2206 57.4573C42.2037 58.4742 41.2884 59.4913 40.1697 59.4913H39.1528C36.9156 59.4913 35.0851 57.6608 35.0851 55.4235V51.3558C35.0851 49.3218 36.102 49.3218 36.102 47.288H58.4748C58.4748 49.3219 59.4917 49.3219 59.4917 51.3558ZM59.4917 18.8135V26.9491C59.4917 28.9831 58.4748 28.9831 58.4748 31.0169H36.1019C36.1019 28.9829 35.085 28.9829 35.085 26.9491V18.8135C35.085 15.7626 37.1189 13.7287 39.1527 12.7118L43.2206 10.6779V6.61011H45.2545H49.3223H51.3562V10.6779L55.424 12.7118C57.4578 13.7287 59.4917 15.7626 59.4917 18.8135Z"/>
<path d="M36.1016 47.2881H58.4744V31.017H36.1016V47.2881ZM49.322 6.61024H45.2542H43.2203H42.2034C41.5932 6.61024 41.1865 6.10172 41.1865 5.59333V1.52545C41.1865 1.01694 41.5932 0.508545 42.2034 0.508545H52.3728C52.983 0.508545 53.3897 1.01706 53.3897 1.52545V5.59321C53.3897 6.10172 52.983 6.61012 52.3728 6.61012H51.3559H49.322V6.61024Z"/>
<path d="M6.10224 18.2036L6.61075 18.8137L8.64457 16.7798L10.17 18.3052L10.2716 18.2036C10.6784 16.2714 10.5767 13.729 10.5767 13.729V13.6273C10.5767 12.712 10.0682 5.39002 2.44111 2.5426C4.47516 5.08493 5.49207 7.93235 6.00059 10.0679C5.49207 7.93235 4.47516 5.08493 2.44123 2.54248C2.44123 2.54248 2.84797 5.69498 2.84797 9.05091C2.84797 10.678 2.74631 12.4068 2.44123 13.7288C2.44123 13.7288 2.03449 15.4577 1.11923 17.2882L1.01758 17.3898L2.44135 18.8136L4.47516 16.7798L6.10224 18.2036Z"/>
<path d="M33.0511 16.7798L35.085 18.8137V26.9493C35.085 28.9833 36.1019 28.9833 36.1019 31.0171V47.2882H0.508789V16.7798L1.11896 17.39L2.54273 18.8137L4.57654 16.7798L6.10197 18.3052L6.61048 18.8137L8.6443 16.7798L10.1697 18.3052L10.6782 18.8137L12.7122 16.7798L13.7291 17.7967L14.746 18.8136L16.7799 16.7798L18.8139 18.8137L20.8478 16.7798L22.8816 18.8137L24.9156 16.7798L26.9495 18.8137L28.9833 16.7798L31.0172 18.8137L33.0511 16.7798ZM39.1528 59.4916H4.57654C2.3393 59.4916 0.508789 57.6611 0.508789 55.4239V47.2882H36.102C36.102 49.3222 35.0851 49.3222 35.0851 51.356V55.4237C35.085 57.6611 36.9155 59.4916 39.1528 59.4916Z"/>
<path d="M14.7454 18.8137L13.7285 17.7968L14.7454 16.7799V5.59332C14.7454 5.08481 15.2539 4.57642 15.7623 4.57642H28.9828V16.7798L26.9488 18.8137L24.915 16.7798L22.8811 18.8137L20.8471 16.7798L18.8132 18.8137L16.7794 16.7798L14.7454 18.8137ZM33.0505 5.59332V16.7798L31.0166 18.8137L28.9828 16.7798V4.57642H32.0336C32.6438 4.57642 33.0505 5.08493 33.0505 5.59332Z"/>
<path d="M55.4238 60H54.4068C53.1865 60 52.2713 59.0847 51.356 58.1695C50.4407 59.0847 49.5255 60 48.3052 60H46.2712C45.0509 60 44.1356 59.0847 43.2204 58.1695C42.3051 59.0847 41.3899 60 40.1695 60H39.1526C36.6103 60 34.5763 57.9661 34.5763 55.4237V51.356C34.5763 50.2373 34.8814 49.6271 35.1865 49.1187C35.3899 48.6102 35.5933 48.2035 35.5933 47.2882V31.017C35.5933 30.1017 35.3898 29.695 35.1865 29.1865C34.8814 28.6779 34.5763 28.0678 34.5763 26.9492V18.8136C34.5763 16.0678 36.2034 13.6271 38.9492 12.3052L42.7119 10.3729V6.6102C42.7119 6.91529 42.5084 7.11872 42.2033 7.11872C41.3897 7.11872 40.6779 6.40689 40.6779 5.5933V1.52542C40.6779 0.711824 41.3897 0 42.2033 0H52.3728C53.1864 0 53.8982 0.711824 53.8982 1.52542V5.59318C53.8982 6.40677 53.1864 7.1186 52.3728 7.1186C52.0677 7.1186 51.8643 6.91517 51.8643 6.61009C51.8643 6.305 52.0677 6.10157 52.3728 6.10157C52.6779 6.10157 52.8813 5.89814 52.8813 5.59306V1.52542C52.8813 1.22034 52.6779 1.01691 52.3728 1.01691H42.2033C41.8983 1.01691 41.6948 1.22034 41.6948 1.52542V5.59318C41.6948 5.89826 41.8983 6.10169 42.2033 6.10169C42.5084 6.10169 42.7119 6.30512 42.7119 6.6102C42.7119 6.30512 42.9153 6.10169 43.2204 6.10169H44.7458V4.57627C44.7458 4.27118 44.9492 4.06775 45.2543 4.06775C45.5594 4.06775 45.7628 4.27118 45.7628 4.57627V6.10169H48.8137V4.57627C48.8137 4.27118 49.0171 4.06775 49.3222 4.06775C49.6273 4.06775 49.8307 4.27118 49.8307 4.57627V6.10169H51.3561C51.6612 6.10169 51.8646 6.30512 51.8646 6.6102V10.3729L55.6273 12.305C58.3731 13.627 60.0001 16.0677 60.0001 18.8135V26.9491C60.0001 28.0678 59.6951 28.6779 59.39 29.1863C59.1865 29.6949 58.9832 30.1016 58.9832 31.0168V47.2881C58.9832 48.2034 59.1867 48.6101 59.39 49.1186C59.6951 49.6271 60.0001 50.2373 60.0001 51.3559V55.4236C60 57.9661 57.9661 60 55.4238 60ZM51.3559 56.9492C51.4575 56.9492 51.661 56.9492 51.7626 57.0508L51.9661 57.2542C52.8813 58.1695 53.5931 58.8813 54.4067 58.8813H55.4236C57.3558 58.8813 58.983 57.2542 58.983 55.322V51.2542C58.983 50.3389 58.7796 49.9322 58.5763 49.4237C58.3728 49.017 58.0677 48.5084 58.0677 47.6948H40.1695C39.8644 47.6948 39.661 47.4914 39.661 47.1863C39.661 46.8812 39.8644 46.6778 40.1695 46.6778H57.9661V31.017C57.9661 29.8983 58.2712 29.2881 58.5763 28.7797C58.7797 28.2712 58.983 27.8645 58.983 26.9492V18.8136C58.983 15.4577 56.3389 13.7288 55.2203 13.1186L51.1526 11.0847C50.9491 10.983 50.8475 10.7796 50.8475 10.678V7.1186H43.7289V10.678C43.7289 10.8814 43.6272 11.0847 43.4238 11.0847L39.3559 13.1186C38.2372 13.7288 35.5933 15.3559 35.5933 18.8136V26.9492C35.5933 27.8645 35.7967 28.2712 36 28.7797C36.2034 29.1865 36.5085 29.695 36.5085 30.5086H54.3051C54.6102 30.5086 54.8136 30.712 54.8136 31.0171C54.8136 31.3222 54.6102 31.5256 54.3051 31.5256H36.5085V47.2881C36.5085 48.4068 36.2034 49.017 35.8983 49.5253C35.6949 50.0339 35.4916 50.4406 35.4916 51.3559V55.4236C35.4916 57.3558 37.1187 58.983 39.051 58.983H40.0679C40.8815 58.983 41.5933 58.2711 42.5085 57.3559L42.712 57.1525C42.9154 56.949 43.2205 56.949 43.4238 57.1525L43.6272 57.3559C44.5425 58.2711 45.2543 58.983 46.0679 58.983H48.1018C48.9154 58.983 49.6273 58.2711 50.5425 57.3559L50.746 57.1525C51.0508 56.9492 51.2542 56.9492 51.3559 56.9492ZM32.0339 60H4.57627C2.03394 60 0 57.9661 0 55.4237V16.7796C0 16.5762 0.101655 16.3729 0.305085 16.2711C0.508514 16.1695 0.711825 16.2711 0.813599 16.3728L2.44068 18L4.06776 16.3729C4.27119 16.1695 4.57627 16.1695 4.77958 16.3729L6.40678 18L8.03386 16.3729C8.23729 16.1695 8.54237 16.1695 8.74568 16.3729L10.3729 18L12 16.3729C12.2034 16.1695 12.5085 16.1695 12.7118 16.3729L14.3389 18L15.9659 16.3729C16.1694 16.1695 16.4745 16.1695 16.6778 16.3729L18.3048 18L19.9319 16.3729C20.1354 16.1695 20.4404 16.1695 20.6437 16.3729L22.2708 18L23.8979 16.3729C24.1013 16.1695 24.4064 16.1695 24.6097 16.3729L26.2368 18L27.8639 16.3729C28.0673 16.1695 28.3724 16.1695 28.5757 16.3729L30.6096 18.4068C30.8131 18.6103 30.8131 18.9154 30.6096 19.1187C30.4062 19.322 30.1011 19.3221 29.8978 19.1187L28.2707 17.4916L26.6437 19.1187C26.4402 19.3221 26.1352 19.3221 25.9318 19.1187L24.3048 17.4916L22.6777 19.1187C22.4743 19.3221 22.1692 19.3221 21.9659 19.1187L20.3388 17.4916L18.7117 19.1187C18.5083 19.3221 18.2032 19.3221 17.9999 19.1187L16.3728 17.4916L14.7457 19.1187C14.5423 19.3221 14.2372 19.3221 14.0339 19.1187L12.4068 17.4916L10.7797 19.1187C10.5763 19.3221 10.2712 19.3221 10.0679 19.1187L8.44084 17.4916L6.81376 19.1187C6.61033 19.3221 6.30524 19.3221 6.10193 19.1187L4.47485 17.4916L2.84777 19.1187C2.64435 19.3221 2.33926 19.3221 2.13595 19.1187L1.01727 18V46.7796H32.0339C32.339 46.7796 32.5424 46.983 32.5424 47.2881C32.5424 47.5932 32.339 47.7966 32.0339 47.7966H1.01691V55.4237C1.01691 57.3559 2.64399 58.9831 4.57627 58.9831H32.0339C32.339 58.9831 32.5424 59.1865 32.5424 59.4916C32.5423 59.7966 32.339 60 32.0339 60ZM52.3729 41.6949H42.2035C41.8984 41.6949 41.6949 41.4915 41.6949 41.1864C41.6949 40.8813 41.8984 40.6779 42.2035 40.6779H52.3729C52.678 40.6779 52.8814 40.8813 52.8814 41.1864C52.8813 41.4915 52.678 41.6949 52.3729 41.6949ZM50.339 37.6271H42.2033C41.8983 37.6271 41.6948 37.4236 41.6948 37.1185C41.6948 36.8135 41.8983 36.61 42.2033 36.61H50.339C50.6441 36.61 50.8475 36.8135 50.8475 37.1185C50.8475 37.4237 50.6441 37.6271 50.339 37.6271ZM28.983 14.2373C28.678 14.2373 28.4745 14.0339 28.4745 13.7288V5.08478H15.7627C15.4577 5.08478 15.2542 5.28821 15.2542 5.5933V13.7288C15.2542 14.0339 15.0508 14.2373 14.7457 14.2373C14.4406 14.2373 14.2372 14.0339 14.2372 13.7288V5.59318C14.2372 4.77958 14.949 4.06775 15.7626 4.06775H32.0339C32.8475 4.06775 33.5593 4.77958 33.5593 5.59318V12.7118C33.5593 13.0169 33.3559 13.2203 33.0508 13.2203C32.7457 13.2203 32.5423 13.0169 32.5423 12.7118V5.59318C32.5423 5.28809 32.3389 5.08466 32.0338 5.08466H29.4914V13.7288C29.4916 14.0339 29.2881 14.2373 28.983 14.2373ZM2.54233 14.2373H2.44068C2.13559 14.1357 2.03394 13.9322 2.03394 13.6271C2.94919 10.0678 2.13559 3.86444 2.03394 2.84753L1.11868 1.93228C0.915254 1.72885 0.915254 1.42377 1.11868 1.22046C1.32211 1.01715 1.6272 1.01703 1.83051 1.22046L2.74576 2.13571C10.983 5.28821 11.0847 13.6273 11.0847 13.7289C11.0847 14.034 10.8813 14.2374 10.5762 14.2374C10.2711 14.2374 10.0677 14.034 10.0677 13.7289C10.0677 13.4238 9.96602 7.01706 3.96598 3.76279C7.01683 8.54249 7.01683 13.5255 7.01683 13.7289C7.01683 14.034 6.8134 14.2374 6.50831 14.2374C6.20323 14.2374 5.9998 14.034 5.9998 13.7289C5.9998 13.6273 5.9998 8.94923 3.15238 4.47473C3.35581 6.91541 3.6609 11.0849 2.94895 13.8307C2.94919 14.0339 2.74576 14.2373 2.54233 14.2373Z"/>
</g>
<defs>
<clipPath id="dclip0_202_160">
<rect width="60" height="60"/>
</clipPath>
</defs>
</symbol><symbol viewBox="0 0 18 18" id="facebook-icon" xmlns="http://www.w3.org/2000/svg">
<path d="M15.3633 0H2.63672C1.18295 0 0 1.18295 0 2.63672V15.3633C0 16.817 1.18295 18 2.63672 18H7.94531V11.6367H5.83594V8.47266H7.94531V6.32812C7.94531 4.58336 9.36461 3.16406 11.1094 3.16406H14.3086V6.32812H11.1094V8.47266H14.3086L13.7812 11.6367H11.1094V18H15.3633C16.817 18 18 16.817 18 15.3633V2.63672C18 1.18295 16.817 0 15.3633 0Z"/>
</symbol><symbol viewBox="0 0 60 60" id="grocery-icon" xmlns="http://www.w3.org/2000/svg">
<g clip-path="url(#fclip0_202_138)">
<path d="M8.64344 7.6015L8.84687 8.61841H8.64344H2.54175C2.54175 8.61841 0.507812 8.61841 0.507812 6.58448C0.507812 4.55054 2.54175 4.55054 2.54175 4.55054H5.59259C7.62653 4.55066 8.64344 7.6015 8.64344 7.6015Z"/>
<path d="M48.3044 53.3643C50.0333 53.3643 51.3553 54.6863 51.3553 56.4151C51.3553 58.144 50.0333 59.466 48.3044 59.466C46.5756 59.466 45.2536 58.144 45.2536 56.4151C45.2536 54.6863 46.5757 53.3643 48.3044 53.3643ZM17.796 53.3643C19.5248 53.3643 20.8468 54.6863 20.8468 56.4151C20.8468 58.144 19.5248 59.466 17.796 59.466C16.0671 59.466 14.7451 58.144 14.7451 56.4151C14.7451 54.6863 16.0672 53.3643 17.796 53.3643Z"/>
<path d="M10.1689 16.7542H59.491C59.491 16.7542 55.4232 39.127 54.4062 42.1778C53.3892 45.2287 50.3384 45.2287 50.3384 45.2287H18.8131C15.7622 45.2287 14.7453 43.1947 14.7453 43.1947L10.1689 16.7542Z"/>
<path d="M57.355 9.63532V16.7539H47.1855V8.61841H56.3381C56.9483 8.61841 57.355 9.12692 57.355 9.63532Z"/>
<path d="M47.1859 8.61854V16.7542H43.1182V4.55078H46.169C46.7792 4.55078 47.1859 5.0593 47.1859 5.56769V8.61854ZM43.118 4.55078V16.7542H28.8809V5.56769C28.8809 5.05918 29.2876 4.55078 29.8978 4.55078H43.118Z"/>
<path d="M20.2363 9.02522C20.7448 11.1608 20.7448 12.6862 20.7448 12.6862C20.7448 12.6862 20.7448 14.7202 20.3381 16.754H24.6093C24.9144 14.9235 24.9144 12.6862 24.9144 12.6862C24.9144 12.6862 24.9144 4.5506 16.7787 1.49976C18.7109 4.04221 19.7279 6.88962 20.2363 9.02522C19.7278 6.88962 18.7109 4.04221 16.677 1.49976C16.677 1.49976 17.0837 4.65226 17.0837 8.00819C17.0837 9.63526 16.9821 11.3641 16.677 12.6861C16.677 12.6861 16.3719 14.9234 15.7617 16.7539H20.338C20.7447 14.7199 20.7447 12.6861 20.7447 12.6861C20.7447 12.6861 20.7448 11.1608 20.2363 9.02522Z"/>
<path d="M48.305 59.9746C46.3728 59.9746 44.7457 58.3475 44.7457 56.4153C44.7457 54.483 46.3727 52.8559 48.305 52.8559C50.2372 52.8559 51.8644 54.483 51.8644 56.4153C51.8644 58.3475 50.2373 59.9746 48.305 59.9746ZM48.305 53.8729C46.8812 53.8729 45.7627 54.9916 45.7627 56.4153C45.7627 57.8389 46.8814 58.9576 48.305 58.9576C49.7288 58.9576 50.8473 57.8389 50.8473 56.4153C50.8473 54.9916 49.7288 53.8729 48.305 53.8729ZM17.7966 59.9746C15.8644 59.9746 14.2372 58.3475 14.2372 56.4153C14.2372 54.483 15.8643 52.8559 17.7966 52.8559C19.7288 52.8559 21.3559 54.483 21.3559 56.4153C21.3559 58.3475 19.7288 59.9746 17.7966 59.9746ZM17.7966 53.8729C16.3728 53.8729 15.2542 54.9916 15.2542 56.4153C15.2542 57.8389 16.3729 58.9576 17.7966 58.9576C19.2203 58.9576 20.3389 57.8389 20.3389 56.4153C20.3389 54.9916 19.2203 53.8729 17.7966 53.8729ZM20.8474 51.8391C20.7457 51.8391 20.644 51.8391 20.644 51.7374C20.4405 51.6358 20.3389 51.3307 20.4405 51.0256C20.644 50.6189 21.6609 48.6866 22.8812 48.6866H51.3557C51.6608 48.6866 51.8643 48.89 51.8643 49.1951C51.8643 49.5002 51.6608 49.7036 51.3557 49.7036H22.8813C22.4746 49.7036 21.661 50.7205 21.2543 51.4325C21.2543 51.7373 21.0508 51.8391 20.8474 51.8391ZM50.3389 45.7374H18.8136C15.4577 45.7374 14.339 43.5002 14.339 43.3984V43.2967L8.23728 7.7035C8.03385 6.99168 7.01694 5.0594 5.69495 5.0594H2.64411C2.44068 5.0594 1.11868 5.16105 1.11868 6.58482C1.11868 8.00859 2.44068 8.11024 2.64411 8.11024H4.67804C4.98313 8.11024 5.18656 8.31367 5.18656 8.61875C5.18656 8.92384 4.98313 9.12727 4.67804 9.12727H2.64411C1.72885 9.12727 0.101774 8.61875 0.101774 6.58494C0.101774 4.55112 1.72885 4.04249 2.64411 4.04249H5.69495C8.03397 4.04249 9.15254 7.29676 9.25431 7.39842L15.356 42.9917C15.5594 43.2967 16.4747 44.7205 18.9154 44.7205H50.4407C50.5424 44.7205 53.1865 44.7205 54.0001 41.9747C54.9153 39.229 58.2713 20.8223 58.9831 17.2629H13.7288C13.4237 17.2629 13.2203 17.0595 13.2203 16.7544C13.2203 16.4493 13.4237 16.2459 13.7288 16.2459H59.4915C59.5931 16.2459 59.7966 16.3475 59.8982 16.4493C59.9999 16.551 59.9999 16.7544 59.9999 16.856C59.7965 17.7713 55.9321 39.3306 54.9151 42.3815C54 45.0255 51.5593 45.7374 50.3389 45.7374ZM45.2542 41.6695C44.9491 41.6695 44.7457 41.4661 44.7457 41.161C44.7457 41.161 44.7457 41.161 44.7457 41.0594L45.2542 35.4662H35.5931V41.0594C35.5931 41.3645 35.3897 41.5679 35.0846 41.5679C34.7795 41.5679 34.5761 41.3645 34.5761 41.0594V35.4662H24.915L25.4236 41.0594C25.4236 41.0594 25.4236 41.0594 25.4236 41.161C25.4236 41.4661 25.2201 41.6695 24.915 41.6695C24.61 41.6695 24.4065 41.4661 24.4065 41.2628L23.7964 35.6696H16.7796C16.4746 35.6696 16.2711 35.4662 16.2711 35.1611C16.2711 34.856 16.4746 34.6526 16.7796 34.6526H23.6949L22.9831 27.534H15.4577C15.1526 27.534 14.9491 27.3306 14.9491 27.0255C14.9491 26.7204 15.1526 26.517 15.4577 26.517H22.8813L22.3728 20.9238C22.3728 20.9238 22.3728 20.9238 22.3728 20.8221C22.3728 20.5171 22.5763 20.3136 22.8813 20.3136C23.1864 20.3136 23.3899 20.5171 23.3899 20.7204L24 26.3135H34.5763V20.822C34.5763 20.5169 34.7798 20.3135 35.0848 20.3135C35.3899 20.3135 35.5934 20.5169 35.5934 20.822V26.4152H46.1697L46.7798 20.822C46.7798 20.5169 47.0849 20.3135 47.2883 20.4153C47.5934 20.4153 47.7969 20.6187 47.7969 20.9238C47.7969 20.9238 47.7969 20.9238 47.7969 21.0254L47.2881 26.6187H53.3898C53.6949 26.6187 53.8983 26.8222 53.8983 27.1273C53.8983 27.4323 53.6949 27.6358 53.3898 27.6358H47.1864L46.4746 34.7544H51.8644C52.1695 34.7544 52.3729 34.9578 52.3729 35.2629C52.3729 35.568 52.1695 35.7714 51.8644 35.7714H46.3728L45.7627 41.3646C45.7627 41.4662 45.5592 41.6695 45.2542 41.6695ZM35.5932 34.5509H45.3559L46.0678 27.4323H35.5932V34.5509ZM24.8135 34.5509H34.5762V27.4323H24.1017L24.8135 34.5509ZM9.66105 41.6695H2.54233C2.23725 41.6695 2.03382 41.4661 2.03382 41.161C2.03382 40.8559 2.23725 40.6525 2.54233 40.6525H9.66093C9.96602 40.6525 10.1694 40.8559 10.1694 41.161C10.1694 41.4662 9.96614 41.6695 9.66105 41.6695ZM8.13563 35.5679H4.57627C4.27118 35.5679 4.06775 35.3644 4.06775 35.0593C4.06775 34.7543 4.27118 34.5508 4.57627 34.5508H8.13563C8.44071 34.5508 8.64414 34.7543 8.64414 35.0593C8.64414 35.3644 8.44071 35.5679 8.13563 35.5679ZM6.6102 29.4662H0.508514C0.203429 29.4662 0 29.2627 0 28.9576C0 28.6526 0.203429 28.4491 0.508514 28.4491H6.6102C6.91529 28.4491 7.11872 28.6526 7.11872 28.9576C7.1186 29.2628 6.91529 29.4662 6.6102 29.4662ZM16.7796 13.195H16.678C16.3729 13.0934 16.2713 12.8899 16.2713 12.5849C17.1865 9.02549 16.3729 2.82215 16.2713 1.80524L15.356 0.889986C15.1526 0.686557 15.1526 0.381472 15.356 0.178162C15.5594 -0.0251481 15.8645 -0.0252673 16.0678 0.178162L16.9831 1.09342C25.2204 4.24592 25.322 12.585 25.322 12.6866C25.322 12.9917 25.1186 13.1951 24.8135 13.1951C24.5084 13.1951 24.305 12.9917 24.305 12.6866C24.305 12.3815 24.2033 5.97477 18.2033 2.72049C21.2541 7.50019 21.2541 12.4832 21.2541 12.6866C21.2541 12.9917 21.0507 13.1951 20.7456 13.1951C20.4405 13.1951 20.2371 12.9917 20.2371 12.6866C20.2371 12.585 20.2371 7.90693 17.3897 3.43244C17.5931 5.87311 17.8982 10.0426 17.1863 12.7884C17.1864 12.9916 16.9831 13.195 16.7796 13.195ZM57.4575 13.195C57.1525 13.195 56.949 12.9916 56.949 12.6865V9.63566C56.949 9.33058 56.7456 9.12715 56.4405 9.12715H51.3557C51.0507 9.12715 50.8472 8.92372 50.8472 8.61864C50.8472 8.31355 51.0507 8.11012 51.3557 8.11012H56.4406C57.2542 8.11012 57.9661 8.82195 57.9661 9.63554V12.6864C57.9661 12.9916 57.7626 13.195 57.4575 13.195ZM47.2881 13.195C46.983 13.195 46.7796 12.9916 46.7796 12.6865V5.56791C46.7796 5.26283 46.5762 5.0594 46.2711 5.0594H43.7287V12.6865C43.7287 12.9916 43.5253 13.195 43.2202 13.195C42.9151 13.195 42.7117 12.9916 42.7117 12.6865V5.0594H29.9999C29.6949 5.0594 29.4914 5.26283 29.4914 5.56791V12.6865C29.4914 12.9916 29.288 13.195 28.9829 13.195C28.6778 13.195 28.4744 12.9916 28.4744 12.6865V5.56791C28.4744 4.75431 29.1862 4.04249 29.9998 4.04249H46.271C47.0846 4.04249 47.7964 4.75431 47.7964 5.56791V12.6865C47.7966 12.9916 47.5932 13.195 47.2881 13.195Z"/>
</g>
<defs>
<clipPath id="fclip0_202_138">
<rect width="60" height="60"/>
</clipPath>
</defs>
</symbol><symbol viewBox="0 0 20 19" id="heart-icon" xmlns="http://www.w3.org/2000/svg">
<path d="M14.5 0C12.76 0 11.09 0.81 10 2.09C8.91 0.81 7.24 0 5.5 0C2.42 0 0 2.42 0 5.5C0 9.28 3.4 12.36 8.55 17.04L10 18.35L11.45 17.03C16.6 12.36 20 9.28 20 5.5C20 2.42 17.58 0 14.5 0ZM10.1 15.55L10 15.65L9.9 15.55C5.14 11.24 2 8.39 2 5.5C2 3.5 3.5 2 5.5 2C7.04 2 8.54 2.99 9.07 4.36H10.94C11.46 2.99 12.96 2 14.5 2C16.5 2 18 3.5 18 5.5C18 8.39 14.86 11.24 10.1 15.55Z"/>
</symbol><symbol viewBox="0 0 60 60" id="home-icon" xmlns="http://www.w3.org/2000/svg">
<g clip-path="url(#hclip0_202_180)">
<path d="M6.64964 55.3298C6.34507 54.4161 5.53285 53.7055 4.61914 53.5024V29.949L25.9389 8.62923L29.9999 4.56836L34.0608 8.62923L55.3806 29.949V53.4008C54.4669 53.7054 53.6547 54.416 53.3501 55.3297C53.3501 53.0962 51.5227 51.2688 49.2892 51.2688C47.0558 51.2688 45.2284 53.0962 45.2284 55.3297C44.1116 55.3297 43.1979 56.2434 43.1979 57.3602C43.1979 58.477 44.1116 59.3907 45.2284 59.3907H39.137V55.3298H20.8629V59.3907H14.7715C15.8883 59.3907 16.802 58.477 16.802 57.3602C16.802 56.2434 15.8883 55.3297 14.7715 55.3297C14.7715 53.0962 12.9441 51.2688 10.7106 51.2688C8.47717 51.2688 6.64964 53.0962 6.64964 55.3298Z"/>
<path d="M39.1374 55.3298V59.3907H20.8633V55.3298H24.9242H35.0765H39.1374Z"/>
<path d="M52.8429 59.3908H56.3962C58.1222 59.3908 59.4419 58.071 59.4419 56.3451C59.4419 54.6192 58.1222 53.2994 56.3962 53.2994C55.9902 53.2994 55.6856 53.2994 55.381 53.5025C54.4673 53.8071 53.6551 54.5177 53.3506 55.3299C53.3506 53.0965 51.5231 51.269 49.2897 51.269C47.0562 51.269 45.2288 53.0965 45.2288 55.3299C44.112 55.3299 43.1983 56.2436 43.1983 57.3604C43.1983 58.4772 44.112 59.3909 45.2288 59.3909H47.2593H52.8429V59.3908ZM14.7718 55.3299C15.8886 55.3299 16.8023 56.2436 16.8023 57.3604C16.8023 58.4772 15.8886 59.3909 14.7718 59.3909H3.60428C1.87835 59.3909 0.558594 58.0712 0.558594 56.3452C0.558594 54.6193 1.87835 53.2995 3.60428 53.2995C4.01033 53.2995 4.3149 53.2995 4.61947 53.5026C5.53317 53.8072 6.3454 54.5178 6.64996 55.33C6.64996 53.0966 8.47738 51.2692 10.7108 51.2692C12.9443 51.2692 14.7718 53.0963 14.7718 55.3299Z"/>
<path d="M35.0762 45.1776V55.33H24.9238V35.0254H35.0762V45.1776Z"/>
<path d="M10.7109 47.3096H18.8328V35.0253H10.7109V47.3096ZM41.1678 47.3096H49.2897V35.0253H41.1678V47.3096ZM30.0002 16.7512C31.7262 16.7512 33.0459 18.071 33.0459 19.7969C33.0459 21.5228 31.7262 22.8426 30.0002 22.8426C28.2743 22.8426 26.9546 21.5228 26.9546 19.7969C26.9546 18.071 28.2743 16.7512 30.0002 16.7512Z"/>
<path d="M25.9394 8.62932L4.61959 29.9491L0.558594 34.0101V8.62932H12.7413V4.56844H10.711V0.507568H18.8328V4.56844H16.8023V8.62932H25.9394ZM59.4419 8.62932V34.01L55.381 29.9491L34.0613 8.62932H59.4419Z"/>
<path d="M56.3961 59.8985C56.0915 59.8985 55.8884 59.6954 55.8884 59.3909C55.8884 59.0863 56.0915 58.8832 56.3961 58.8832C57.8174 58.8832 58.9341 57.7664 58.9341 56.3452C58.9341 54.9238 57.8173 53.8071 56.3961 53.8071C56.0915 53.8071 55.8884 53.8071 55.5839 53.9086H55.4824C54.6701 54.1117 54.061 54.7209 53.858 55.4315C53.7566 55.6346 53.5535 55.8375 53.2489 55.736C53.0458 55.736 52.8429 55.4315 52.8429 55.2284C52.8429 53.2995 51.2185 51.675 49.2895 51.675C47.3605 51.675 45.7362 53.2995 45.7362 55.2284C45.7362 55.533 45.5331 55.736 45.2285 55.736C44.4163 55.736 43.7057 56.4467 43.7057 57.2589C43.7057 58.0711 44.4163 58.7817 45.2285 58.7817H49.2894C49.594 58.7817 49.7971 58.9848 49.7971 59.2894C49.7971 59.5939 49.594 59.797 49.2894 59.797H24.9239C24.6193 59.797 24.4163 59.5939 24.4163 59.2894C24.4163 58.9848 24.6193 58.7817 24.9239 58.7817H43.198C42.8935 58.3757 42.6904 57.868 42.6904 57.2589C42.6904 56.0406 43.6041 55.0254 44.7209 54.7209C44.924 52.3858 46.8529 50.66 49.2894 50.66C51.3199 50.66 53.0457 51.9797 53.6548 53.8071C53.9594 53.4011 54.4671 53.198 54.8731 52.9949V36.0406C54.8731 35.736 55.0762 35.5329 55.3808 35.5329C55.6853 35.5329 55.8884 35.736 55.8884 36.0406V52.7918C56.0915 52.7918 56.193 52.7918 56.3961 52.7918C58.325 52.7918 59.9494 54.4162 59.9494 56.3452C59.9493 58.2741 58.325 59.8985 56.3961 59.8985ZM20.863 59.8985C20.5585 59.8985 20.3554 59.6954 20.3554 59.3909V55.33C20.3554 55.0254 20.5585 54.8223 20.863 54.8223H24.4164V35.0254C24.4164 34.7208 24.6195 34.5177 24.924 34.5177H35.0763C35.3808 34.5177 35.5839 34.7208 35.5839 35.0254V54.8223H39.1373C39.4418 54.8223 39.6449 55.0254 39.6449 55.33C39.6449 55.6346 39.4418 55.8376 39.1373 55.8376H21.3707V59.3909C21.3707 59.6954 21.1676 59.8985 20.863 59.8985ZM25.4316 54.8223H34.5686V45.6853H33.0458C32.7412 45.6853 32.5381 45.4822 32.5381 45.1776C32.5381 44.8731 32.7412 44.67 33.0458 44.67H34.5686V35.5329H25.4316V54.8223ZM14.7717 59.8985C14.4671 59.8985 14.264 59.6954 14.264 59.3909C14.264 59.0863 14.4671 58.8832 14.7717 58.8832C15.5839 58.8832 16.2945 58.1726 16.2945 57.3604C16.2945 56.5481 15.5839 55.8375 14.7717 55.8375C14.4671 55.8375 14.264 55.6344 14.264 55.3299C14.264 53.401 12.6397 51.7765 10.7107 51.7765C8.78167 51.7765 7.15746 53.401 7.15746 55.33C7.15746 55.5331 6.95437 55.736 6.75141 55.8376C6.54832 55.8376 6.24375 55.7362 6.14227 55.5331C5.8377 54.8225 5.22857 54.2133 4.51794 54.0102C4.51794 54.0102 4.51794 54.0102 4.41646 54.0102C4.11189 53.9087 3.90881 53.9088 3.60424 53.9088C2.18288 53.9088 1.06621 55.0255 1.06621 56.4468C1.06621 57.8681 2.183 58.9848 3.60424 58.9848C3.90881 58.9848 4.11189 59.1879 4.11189 59.4925C4.11189 59.797 3.90881 60.0001 3.60424 60.0001C1.67535 60.0001 0.0509002 58.3758 0.0509002 56.4468C0.0509002 54.5179 1.67523 52.8934 3.60424 52.8934C3.80732 52.8934 3.90881 52.8934 4.11189 52.8934V36.0406C4.11189 35.736 4.31498 35.5329 4.61955 35.5329C4.92412 35.5329 5.1272 35.736 5.1272 36.0406V53.0964C5.63485 53.2995 6.04091 53.6041 6.34548 53.9086C6.95461 52.0812 8.68054 50.7615 10.7109 50.7615C13.046 50.7615 14.9749 52.5889 15.2794 54.8223C16.4977 55.0254 17.3099 56.0406 17.3099 57.3604C17.3097 58.7817 16.193 59.8985 14.7717 59.8985ZM51.3199 47.7158H39.1372C38.8326 47.7158 38.6295 47.5127 38.6295 47.2081C38.6295 46.9036 38.8326 46.7005 39.1372 46.7005H40.66V35.0254C40.66 34.7208 40.8631 34.5177 41.1677 34.5177H49.2895C49.5941 34.5177 49.7972 34.7208 49.7972 35.0254V46.7005H51.32C51.6246 46.7005 51.8277 46.9036 51.8277 47.2081C51.8277 47.5127 51.6245 47.7158 51.3199 47.7158ZM41.6752 46.7005H48.7817V41.6243H41.6752V46.7005ZM41.6752 40.6091H48.7817V35.5329H41.6752V40.6091ZM20.863 47.7158H8.6803C8.37573 47.7158 8.17265 47.5127 8.17265 47.2081C8.17265 46.9036 8.37573 46.7005 8.6803 46.7005H10.2031V35.0254C10.2031 34.7208 10.4062 34.5177 10.7108 34.5177H18.8327C19.1372 34.5177 19.3403 34.7208 19.3403 35.0254V46.7005H20.8632C21.1677 46.7005 21.3708 46.9036 21.3708 47.2081C21.3708 47.5127 21.1676 47.7158 20.863 47.7158ZM11.2183 46.7005H18.3249V41.6243H11.2183V46.7005ZM11.2183 40.6091H18.3249V35.5329H11.2183V40.6091ZM0.558435 34.5177C0.456952 34.5177 0.456952 34.5177 0.35535 34.5177C0.152264 34.4162 0.0507812 34.2132 0.0507812 34.0101V8.6294C0.0507812 8.52792 0.152264 8.32483 0.152264 8.22335C0.152264 8.12187 0.35535 8.12187 0.558316 8.12187H12.2334V5.07618H10.7106C10.406 5.07618 10.2029 4.8731 10.2029 4.56853V0.507654C10.2031 0.203085 10.4062 0 10.7108 0H18.8327C19.1372 0 19.3403 0.203085 19.3403 0.507654V4.56853C19.3403 4.8731 19.1372 5.07618 18.8327 5.07618H17.3098V8.12187H19.8479C20.1524 8.12187 20.3555 8.32495 20.3555 8.62952C20.3555 8.93409 20.1524 9.13718 19.8479 9.13718H16.8022C16.4976 9.13718 16.2945 8.93409 16.2945 8.62952V4.56853C16.2945 4.26396 16.4976 4.06087 16.8022 4.06087H18.325V1.01519H11.2183V4.06087H12.7412C13.0457 4.06087 13.2488 4.26396 13.2488 4.56853V8.6294C13.2488 8.93397 13.0457 9.13706 12.7412 9.13706H1.06609V32.7919L29.594 4.26396C29.6955 4.16248 29.8986 4.16248 30.0001 4.16248C30.2032 4.16248 30.3047 4.16248 30.4062 4.26396L58.9341 32.7919V9.13706H40.1523C39.8478 9.13706 39.6447 8.93397 39.6447 8.6294C39.6447 8.32483 39.8478 8.12175 40.1523 8.12175H59.4416C59.7462 8.12175 59.9493 8.32483 59.9493 8.6294V34.0101C59.9493 34.2132 59.8478 34.4161 59.6447 34.5177C59.4416 34.6192 59.2387 34.5177 59.1371 34.4162L30.1016 5.38075L1.06609 34.4162C0.863004 34.4162 0.660037 34.5177 0.558435 34.5177ZM30.0001 23.3503C28.0712 23.3503 26.4468 21.726 26.4468 19.797C26.4468 17.8679 28.0711 16.2436 30.0001 16.2436C31.9291 16.2436 33.5534 17.8679 33.5534 19.797C33.5534 21.726 31.929 23.3503 30.0001 23.3503ZM30.0001 17.2589C28.5787 17.2589 27.4621 18.3757 27.4621 19.797C27.4621 21.2182 28.5789 22.335 30.0001 22.335C31.4215 22.335 32.5381 21.2182 32.5381 19.797C32.5381 18.3757 31.4215 17.2589 30.0001 17.2589Z"/>
</g>
<defs>
<clipPath id="hclip0_202_180">
<rect width="60" height="60"/>
</clipPath>
</defs>
</symbol><symbol viewBox="0 0 18 18" id="linkedin-icon" xmlns="http://www.w3.org/2000/svg">
<path d="M15.3633 0H2.63672C1.18295 0 0 1.18295 0 2.63672V15.3633C0 16.817 1.18295 18 2.63672 18H15.3633C16.817 18 18 16.817 18 15.3633V2.63672C18 1.18295 16.817 0 15.3633 0ZM6.36328 14.2734H4.25391V6.89062H6.36328V14.2734ZM6.36328 5.83594H4.25391V3.72656H6.36328V5.83594ZM13.7461 14.2734H11.6367V10.0547C11.6367 9.47324 11.1635 9 10.582 9C10.0006 9 9.52734 9.47324 9.52734 10.0547V14.2734H7.41797V6.89062H9.52734V7.28819C10.08 7.11639 10.4389 6.89062 11.1094 6.89062C12.5399 6.89214 13.7461 8.17548 13.7461 9.69214V14.2734Z"/>
</symbol><symbol viewBox="0 0 10 14" id="location-icon" xmlns="http://www.w3.org/2000/svg">
<path d="M4.9 0C2.191 0 0 2.191 0 4.9C0 8.575 4.9 14 4.9 14C4.9 14 9.8 8.575 9.8 4.9C9.8 2.191 7.609 0 4.9 0ZM1.4 4.9C1.4 2.968 2.968 1.4 4.9 1.4C6.832 1.4 8.4 2.968 8.4 4.9C8.4 6.916 6.384 9.933 4.9 11.816C3.444 9.947 1.4 6.895 1.4 4.9Z"/>
<path d="M4.90039 6.6499C5.86689 6.6499 6.65039 5.8664 6.65039 4.8999C6.65039 3.9334 5.86689 3.1499 4.90039 3.1499C3.93389 3.1499 3.15039 3.9334 3.15039 4.8999C3.15039 5.8664 3.93389 6.6499 4.90039 6.6499Z"/>
</symbol><symbol viewBox="0 0 20 16" id="mail-icon" xmlns="http://www.w3.org/2000/svg">
<path d="M20 2C20 0.9 19.1 0 18 0H2C0.9 0 0 0.9 0 2V14C0 15.1 0.9 16 2 16H18C19.1 16 20 15.1 20 14V2ZM18 2L10 7L2 2H18ZM18 14H2V4L10 9L18 4V14Z"/>
</symbol><symbol viewBox="0 0 60 60" id="milk-icon" xmlns="http://www.w3.org/2000/svg">
<g clip-path="url(#lclip0_202_149)">
<path d="M40.1017 59.4417H26.9037V51.3199C24.8732 52.335 22.8428 52.335 22.8428 52.335C22.8428 52.335 15.7362 52.335 12.6906 45.2285C10.6601 40.4569 0.507812 44.2133 0.507812 44.2133V16.8021H26.9038H41.1169V28.9849H37.056L37.7667 37.1067H37.6652L39.0865 57.4113C39.0865 58.2236 39.4926 58.8327 40.2033 59.2388L40.1017 59.4417ZM26.9037 16.8021H0.507812L8.62968 4.61938H32.9952L41.117 15.7869V16.8021H26.9037Z"/>
<path d="M8.62988 4.61934H32.9954V0.55835H8.62988V4.61934Z"/>
<path d="M59.3906 28.9849L58.7815 37.1066H58.3755H37.7663L37.0557 28.9849H41.1165H59.3906Z"/>
<path d="M58.7819 37.1067L57.3605 57.4113C57.3605 58.5281 56.4468 59.4418 55.33 59.4418H41.1169C40.8123 59.4418 40.4063 59.3403 40.2032 59.2387C39.5941 58.9341 39.0864 58.2235 39.0864 57.4113L37.665 37.1067H37.7665H58.3757H58.7819Z"/>
<path d="M26.9037 51.3198V59.4417H0.507812V44.2133C0.507812 44.2133 10.6601 40.457 12.6906 45.2285C15.7362 52.335 22.8428 52.335 22.8428 52.335C22.8428 52.335 24.8733 52.335 26.9037 51.3198Z"/>
<path d="M55.33 59.9493H41.1168C39.6954 59.9493 38.5787 58.8325 38.5787 57.4113L37.1574 37.1067C37.1574 37.0052 37.1574 36.8021 37.2588 36.7006C37.3603 36.5991 37.4619 36.4975 37.6649 36.4975H54.3147C54.6192 36.4975 54.8223 36.7006 54.8223 37.0052C54.8223 37.3097 54.6192 37.5128 54.3147 37.5128H38.2742L39.5939 57.3098C39.5939 58.2235 40.3045 58.8326 41.1168 58.8326H55.33C56.1422 58.8326 56.8528 58.122 56.8528 57.3098L58.8833 29.391H37.665L37.9696 32.9443C37.9696 33.2489 37.7665 33.452 37.4619 33.452C37.2588 33.452 36.9543 33.2489 36.9543 32.9443L36.6497 28.8834C36.6497 28.7819 36.6497 28.5789 36.7512 28.4774C36.8527 28.3759 36.9543 28.2743 37.1572 28.2743H59.4922C59.5937 28.2743 59.7968 28.3758 59.8983 28.4774C59.9998 28.5789 59.9998 28.6805 59.9998 28.8834L57.9693 57.3098C57.868 58.8326 56.7512 59.9493 55.33 59.9493ZM35.0254 59.9493H0.507654C0.203085 59.9493 0 59.7462 0 59.4416V44.2132V16.802C0 16.7006 0 16.7006 0 16.599C0 16.599 0 16.4975 0.101483 16.4975L8.12187 4.41634V0.558435C8.12187 0.253867 8.32495 0.0507812 8.62952 0.0507812H32.995C33.2996 0.0507812 33.5027 0.253867 33.5027 0.558435V4.41634L41.5229 15.4823C41.6244 15.5838 41.6244 15.6854 41.6244 15.7869V24.9239C41.6244 25.2285 41.4213 25.4316 41.1168 25.4316C40.8122 25.4316 40.6091 25.2285 40.6091 24.9239V15.9899L32.6903 5.12696H12.6904C12.3858 5.12696 12.1827 4.92388 12.1827 4.61931C12.1827 4.31474 12.3858 4.11166 12.6904 4.11166H32.4873V1.06609H9.13706V4.61943C9.13706 4.72091 9.13706 4.82251 9.03557 4.924L1.42136 16.2945H26.5991L30.5585 8.47722C30.6599 8.27413 30.9645 8.17265 31.2691 8.27413C31.4722 8.37561 31.5736 8.68018 31.4722 8.98475L27.8173 16.3959H37.1575C37.462 16.3959 37.6651 16.599 37.6651 16.9035C37.6651 17.2081 37.462 17.4112 37.1575 17.4112H27.0052H1.11667V43.6041C3.55322 42.7919 11.3705 40.6599 13.2994 45.1269C16.142 51.8274 22.9441 51.9289 22.9441 51.9289C23.2487 51.9289 23.4518 52.132 23.4518 52.4366C23.4518 52.7411 23.2487 52.9442 22.9441 52.9442C22.8426 52.9442 15.4314 52.8427 12.2842 45.5331C10.6599 41.6752 2.8426 44.1117 1.11667 44.7209V59.0356H26.4975V20.863C26.4975 20.5585 26.7005 20.3554 27.0051 20.3554C27.3097 20.3554 27.5128 20.5585 27.5128 20.863V58.9341H35.127C35.4315 58.9341 35.6346 59.1372 35.6346 59.4418C35.6345 59.7463 35.3299 59.9493 35.0254 59.9493ZM16.7513 35.5838H8.6294C8.32483 35.5838 8.12175 35.3807 8.12175 35.0762C8.12175 34.7716 8.32483 34.5685 8.6294 34.5685H16.7513C17.0558 34.5685 17.2589 34.7716 17.2589 35.0762C17.2589 35.3808 17.0558 35.5838 16.7513 35.5838ZM18.7818 31.5229H8.6294C8.32483 31.5229 8.12175 31.3199 8.12175 31.0153C8.12175 30.7107 8.32483 30.5076 8.6294 30.5076H18.7816C19.0862 30.5076 19.2893 30.7107 19.2893 31.0153C19.2893 31.3199 19.0863 31.5229 18.7818 31.5229ZM14.7208 27.4621H8.6294C8.32483 27.4621 8.12175 27.259 8.12175 26.9544C8.12175 26.6498 8.32483 26.4468 8.6294 26.4468H14.7208C15.0253 26.4468 15.2284 26.6498 15.2284 26.9544C15.2284 27.259 15.0253 27.4621 14.7208 27.4621Z"/>
</g>
<defs>
<clipPath id="lclip0_202_149">
<rect width="60" height="60"/>
</clipPath>
</defs>
</symbol><symbol viewBox="0 0 18 18" id="search-icon" xmlns="http://www.w3.org/2000/svg">
<path d="M12.5 11H11.71L11.43 10.73C12.41 9.59 13 8.11 13 6.5C13 2.91 10.09 0 6.5 0C2.91 0 0 2.91 0 6.5C0 10.09 2.91 13 6.5 13C8.11 13 9.59 12.41 10.73 11.43L11 11.71V12.5L16 17.49L17.49 16L12.5 11ZM6.5 11C4.01 11 2 8.99 2 6.5C2 4.01 4.01 2 6.5 2C8.99 2 11 4.01 11 6.5C11 8.99 8.99 11 6.5 11Z"/>
</symbol><symbol viewBox="0 0 60 60" id="snack-icon" xmlns="http://www.w3.org/2000/svg">
<path d="M4.5752 40.1696H55.4227V45.2543H4.5752V40.1696ZM4.5752 30H55.4227V34.0678H4.5752V30Z"/>
<path d="M24.9142 29.9999L20.8464 34.0676L18.8125 36.1016L16.7786 34.0678L12.7108 30H24.9142V29.9999ZM4.5752 25.9321H55.4227V29.9999H4.5752V25.9321Z"/>
<path d="M59.4909 36.1016V38.1355C59.4909 39.2542 58.5756 40.1694 57.457 40.1694H2.54175C1.42307 40.1694 0.507812 39.2542 0.507812 38.1355V36.1016C0.507812 34.9829 1.42307 34.0676 2.54175 34.0676H16.7791L18.813 36.1016L20.8469 34.0676H57.4571C58.5756 34.0677 59.4909 34.983 59.4909 36.1016Z"/>
<path d="M57.4568 52.3729V54.4068C57.4568 56.644 55.6263 58.4745 53.3891 58.4745H6.60947C4.37222 58.4745 2.54172 56.644 2.54172 54.4068V52.3729C2.54172 51.2542 3.45697 50.3389 4.57565 50.3389H55.4231C56.5416 50.3389 57.4568 51.2542 57.4568 52.3729ZM29.9992 1.52539C59.4907 1.52539 57.4568 23.8982 57.4568 23.8982C57.4568 25.1186 56.6432 25.9322 55.4229 25.9322H4.57554C3.3552 25.9322 2.5416 25.1186 2.5416 23.8982C2.5416 23.8982 0.507781 1.52539 29.9992 1.52539Z"/>
<path d="M55.4227 45.2542H4.5752V50.3389H55.4227V45.2542Z"/>
<path d="M53.3898 58.983H6.6102C4.06787 58.983 2.03394 56.9491 2.03394 54.4068V52.3728C2.03394 50.9491 3.15262 49.8305 4.57627 49.8305H55.4237C56.8475 49.8305 57.9661 50.9492 57.9661 52.3728V54.4068C57.9661 56.9492 55.9321 58.983 53.3898 58.983ZM4.57627 50.8475C3.76267 50.8475 3.05085 51.5594 3.05085 52.373V54.4069C3.05085 56.3391 4.67792 57.9662 6.6102 57.9662H53.3898C55.322 57.9662 56.9492 56.3392 56.9492 54.4069V52.373C56.9492 51.5594 56.2373 50.8475 55.4237 50.8475H4.57627ZM52.3729 46.7797C51.1525 46.7797 50.5424 46.1695 49.9322 45.661C49.4237 45.1525 49.017 44.7457 48.3051 44.7457C47.5933 44.7457 47.0848 45.1525 46.6781 45.661C46.1695 46.1695 45.5594 46.7797 44.2374 46.7797C42.9154 46.7797 42.4069 46.1695 41.7967 45.661C41.2882 45.1525 40.8814 44.7457 40.1696 44.7457C39.4578 44.7457 38.9493 45.1525 38.5425 45.661C38.034 46.1695 37.4239 46.7797 36.1019 46.7797C34.7799 46.7797 34.2714 46.1695 33.6612 45.661C33.1527 45.1525 32.7459 44.7457 32.0341 44.7457C31.3223 44.7457 30.8138 45.1525 30.407 45.661C29.8985 46.1695 29.2884 46.7797 27.9664 46.7797C26.6444 46.7797 26.1359 46.1695 25.5257 45.661C25.0172 45.1525 24.6104 44.7457 23.8986 44.7457C23.1868 44.7457 22.6783 45.1525 22.2715 45.661C21.763 46.1695 21.1528 46.7797 19.8309 46.7797C18.5089 46.7797 18.0003 46.1695 17.3902 45.661C16.8817 45.1525 16.4749 44.7457 15.7631 44.7457C15.0513 44.7457 14.5428 45.1525 14.136 45.661C13.6275 46.1695 13.0173 46.7797 11.6953 46.7797C10.3734 46.7797 9.86484 46.1695 9.25467 45.661C8.74615 45.1525 8.33941 44.7457 7.62759 44.7457C5.79708 44.7457 3.96658 46.5762 3.96658 46.6779C3.76315 46.8813 3.45806 46.8813 3.25475 46.6779C3.05132 46.4744 3.05132 46.1694 3.25475 45.9661C3.35641 45.8644 5.492 43.8305 7.72936 43.8305C8.9497 43.8305 9.55987 44.4406 10.17 44.9491C10.6786 45.4577 11.0853 45.8644 11.7971 45.8644C12.5089 45.8644 13.0175 45.4577 13.4242 44.9491C13.9327 44.4406 14.5429 43.8305 15.8649 43.8305C17.1869 43.8305 17.6954 44.4406 18.3055 44.9491C18.8141 45.4577 19.2208 45.8644 19.9326 45.8644C20.6445 45.8644 21.153 45.4577 21.5597 44.9491C22.0682 44.4406 22.6784 43.8305 24.0004 43.8305C25.3224 43.8305 25.8309 44.4406 26.4411 44.9491C26.9496 45.4577 27.3563 45.8644 28.0681 45.8644C28.78 45.8644 29.2885 45.4577 29.6952 44.9491C30.2037 44.4406 30.8139 43.8305 32.1359 43.8305C33.4579 43.8305 33.9664 44.4406 34.5766 44.9491C35.0851 45.4577 35.4918 45.8644 36.2036 45.8644C36.9155 45.8644 37.424 45.4577 37.8307 44.9491C38.3392 44.4406 38.9494 43.8305 40.2714 43.8305C41.5934 43.8305 42.1019 44.4406 42.7121 44.9491C43.2206 45.4577 43.6273 45.8644 44.3391 45.8644C45.051 45.8644 45.5595 45.4577 45.9662 44.9491C46.4747 44.4406 47.0849 43.8305 48.4069 43.8305C49.7289 43.8305 50.2374 44.4406 50.8476 44.9491C51.3561 45.4577 51.7628 45.8644 52.4747 45.8644C54.3052 45.8644 56.1357 44.0339 56.1357 43.9322C56.3391 43.7288 56.6442 43.7288 56.8475 43.9322C57.0508 44.1357 57.0509 44.4408 56.8475 44.6441C56.7457 44.6441 54.6101 46.7797 52.3729 46.7797ZM57.4575 40.678H2.54233C1.11868 40.678 0 39.5594 0 38.1356V36.1017C0 34.678 1.11868 33.5594 2.54233 33.5594H11.6949C12 33.5594 12.2034 33.7628 12.2034 34.0679C12.2034 34.373 12 34.5764 11.6949 34.5764H2.54233C1.72873 34.5764 1.01691 35.2882 1.01691 36.1018V38.1356C1.01691 38.9492 1.72873 39.6611 2.54233 39.6611H57.4575C58.2711 39.6611 58.983 38.9492 58.983 38.1356V36.1017C58.983 35.2881 58.2711 34.5763 57.4575 34.5763H25.9322C25.6271 34.5763 25.4237 34.3728 25.4237 34.0678C25.4237 33.7627 25.6271 33.5592 25.9322 33.5592H57.4575C58.8813 33.5592 59.9999 34.6779 59.9999 36.1016V38.1356C60 39.5594 58.8813 40.678 57.4575 40.678ZM18.8136 36.6102C18.7119 36.6102 18.5085 36.6102 18.4068 36.5086L12.4068 30.5085H4.47461C4.16953 30.5085 3.9661 30.3051 3.9661 30C3.9661 29.6949 4.16953 29.4915 4.47461 29.4915H12.6102C12.7119 29.4915 12.9153 29.5931 13.017 29.5931L18.7119 35.2881L24.4068 29.5933C24.5084 29.4916 24.6102 29.4916 24.8135 29.4916H55.322C55.627 29.4916 55.8305 29.695 55.8305 30.0001C55.8305 30.3052 55.627 30.5086 55.322 30.5086H25.0169L19.0169 36.5087C19.1187 36.6102 18.9152 36.6102 18.8136 36.6102ZM55.4237 26.4408H4.57627C3.05085 26.4408 2.03394 25.4239 2.03394 23.8984C2.03394 23.5933 1.32211 15.4577 7.32203 8.94929C12.1017 3.6612 19.7288 1.01709 29.9999 1.01709C40.271 1.01709 47.8983 3.66108 52.678 8.94917C58.5762 15.3559 58.0678 23.3898 57.9661 23.8983C57.9661 25.4237 56.9492 26.4408 55.4237 26.4408ZM29.9999 2.034C20.0338 2.034 12.7118 4.57633 8.03385 9.66111C2.33902 15.8645 2.94919 23.7967 3.05085 23.8983C3.05085 24.9152 3.66101 25.4237 4.57627 25.4237H55.4237C56.339 25.4237 56.9492 24.8136 56.9492 23.8983C56.9492 23.7967 57.5593 15.8645 51.8644 9.66099C47.2881 4.57633 39.9661 2.034 29.9999 2.034ZM34.5762 12.2034C33.966 12.2034 33.5593 11.7967 33.5593 11.1865C33.5593 10.5764 33.966 10.1696 34.5762 10.1696C35.1864 10.1696 35.5931 10.5764 35.5931 11.1865C35.5932 11.7967 35.1864 12.2034 34.5762 12.2034ZM46.7796 11.1865C46.1694 11.1865 45.7627 10.7798 45.7627 10.1696C45.7627 9.55946 46.1694 9.15272 46.7796 9.15272C47.3898 9.15272 47.7965 9.55946 47.7965 10.1696C47.7966 10.7797 47.3898 11.1865 46.7796 11.1865ZM39.661 10.1695C39.0508 10.1695 38.6441 9.76277 38.6441 9.1526C38.6441 8.54243 39.0508 8.13569 39.661 8.13569C40.2712 8.13569 40.6779 8.54243 40.6779 9.1526C40.6779 9.76277 40.2712 10.1695 39.661 10.1695ZM28.4745 8.13569C27.8643 8.13569 27.4576 7.72895 27.4576 7.11878C27.4576 6.50861 27.8643 6.10187 28.4745 6.10187C29.0847 6.10187 29.4914 6.50861 29.4914 7.11878C29.4914 7.72895 29.0847 8.13569 28.4745 8.13569ZM35.5932 6.10175C34.9831 6.10175 34.5763 5.69501 34.5763 5.08484C34.5763 4.47467 34.9831 4.06794 35.5932 4.06794C36.2034 4.06794 36.6101 4.47467 36.6101 5.08484C36.6101 5.69501 36.2034 6.10175 35.5932 6.10175Z"/>
</symbol><symbol viewBox="0 0 18 18" id="tel-icon" xmlns="http://www.w3.org/2000/svg">
<path d="M12 9H14C14 6.24 11.76 4 9 4V6C10.66 6 12 7.34 12 9ZM16 9H18C18 4.03 13.97 0 9 0V2C12.87 2 16 5.13 16 9ZM17 12.5C15.75 12.5 14.55 12.3 13.43 11.93C13.33 11.9 13.22 11.88 13.12 11.88C12.86 11.88 12.61 11.98 12.41 12.17L10.21 14.37C7.38 12.93 5.06 10.62 3.62 7.78L5.82 5.57C6.1 5.31 6.18 4.92 6.07 4.57C5.7 3.45 5.5 2.25 5.5 1C5.5 0.45 5.05 0 4.5 0H1C0.45 0 0 0.45 0 1C0 10.39 7.61 18 17 18C17.55 18 18 17.55 18 17V13.5C18 12.95 17.55 12.5 17 12.5ZM2.03 2H3.53C3.6 2.88 3.75 3.75 3.98 4.58L2.78 5.79C2.38 4.58 2.12 3.32 2.03 2ZM16 15.97C14.68 15.88 13.4 15.62 12.2 15.21L13.4 14.01C14.25 14.25 15.12 14.4 16 14.46V15.97Z"/>
</symbol><symbol viewBox="0 0 18 16" id="twitter-icon" xmlns="http://www.w3.org/2000/svg">
<path d="M6.71526 15.3843C5.93687 15.3843 5.1357 15.3213 4.32971 15.1949C2.91014 14.9722 1.47313 14.2296 1.0665 14.0073L0 13.4242L1.15466 13.0445C2.41686 12.6295 3.18466 12.372 4.13512 11.9688C3.18343 11.5079 2.44995 10.6789 2.09688 9.60714L1.82826 8.79168L2.04854 8.82533C1.83966 8.6148 1.67473 8.40112 1.54688 8.2068C1.09218 7.51617 0.851441 6.67228 0.902664 5.94911L0.953201 5.23733L1.37933 5.4024C1.19957 5.06292 1.06966 4.70037 0.993302 4.32038C0.807221 3.39369 0.962952 2.40917 1.43193 1.54826L1.80313 0.866831L2.29958 1.46311C3.86966 3.34919 5.85832 4.46801 8.2186 4.79554C8.12219 4.13101 8.19443 3.48968 8.43352 2.91482C8.71188 2.24548 9.20709 1.6779 9.86517 1.27333C10.596 0.824122 11.4824 0.606455 12.3609 0.660426C13.2929 0.717692 14.1391 1.06692 14.8112 1.67103C15.1394 1.58575 15.3813 1.4947 15.7081 1.37165C15.9048 1.29763 16.1278 1.21359 16.4068 1.11746L17.4352 0.763148L16.7646 2.67834C16.8088 2.67463 16.8544 2.67147 16.9021 2.66941L18.0001 2.6197L17.3511 3.50671C17.3139 3.55752 17.3044 3.57194 17.2912 3.59185C17.2389 3.67068 17.1738 3.76873 16.283 4.95828C16.06 5.25614 15.9486 5.6441 15.9693 6.05087C16.0483 7.59664 15.8586 8.9952 15.4053 10.2075C14.9766 11.3545 14.3122 12.3386 13.4308 13.1325C12.3401 14.1147 10.9494 14.7872 9.29704 15.1311C8.48653 15.2997 7.61614 15.3843 6.71526 15.3843Z"/>
</symbol><symbol viewBox="0 0 16 16" id="user-icon" xmlns="http://www.w3.org/2000/svg">
<path d="M8 1.9C9.16 1.9 10.1 2.84 10.1 4C10.1 5.16 9.16 6.1 8 6.1C6.84 6.1 5.9 5.16 5.9 4C5.9 2.84 6.84 1.9 8 1.9ZM8 10.9C10.97 10.9 14.1 12.36 14.1 13V14.1H1.9V13C1.9 12.36 5.03 10.9 8 10.9ZM8 0C5.79 0 4 1.79 4 4C4 6.21 5.79 8 8 8C10.21 8 12 6.21 12 4C12 1.79 10.21 0 8 0ZM8 9C5.33 9 0 10.34 0 13V16H16V13C16 10.34 10.67 9 8 9Z"/>
</symbol><symbol viewBox="0 0 60 60" id="vegetables-icon" xmlns="http://www.w3.org/2000/svg">
<g clip-path="url(#rclip0_202_129)">
<path d="M27.6144 39.1372H45.1779C45.1779 46.8529 40.5079 53.5534 33.5028 57.0053C30.3556 58.6296 26.7008 59.4418 22.8429 59.4418C10.5586 59.4418 0.507812 50.4062 0.507812 39.1372H9.13721H18.0712C18.3758 39.7463 19.0864 40.1524 19.7971 40.1524C20.2032 40.1524 20.6093 40.0509 20.9139 39.8478C21.2185 40.6601 21.9291 41.1676 22.8428 41.1676C23.7565 41.1676 24.4671 40.5585 24.7717 39.8478C25.0763 40.0509 25.4823 40.1524 25.8885 40.1524C26.5991 40.1524 27.3098 39.7463 27.6144 39.1372Z"/>
<path d="M22.8428 45.2286C22.8428 45.2286 23.858 46.7514 23.858 47.2591C23.858 47.7667 23.4519 48.2743 22.8428 48.2743C22.2336 48.2743 21.8276 47.7666 21.8276 47.2591C21.8276 46.7515 22.8428 45.2286 22.8428 45.2286ZM17.7666 44.2134C17.7666 44.2134 17.462 45.9393 17.056 46.3454C16.6499 46.7514 16.0408 46.7514 15.6346 46.3454C15.2286 45.9393 15.2286 45.3302 15.6346 44.924C16.0408 44.5179 17.7666 44.2134 17.7666 44.2134ZM30.0509 44.924C30.457 45.33 30.457 45.9392 30.0509 46.3454C29.6449 46.7514 29.0358 46.7514 28.6296 46.3454C28.2235 45.9393 27.919 44.2134 27.919 44.2134C27.919 44.2134 29.6448 44.5179 30.0509 44.924Z"/>
<path d="M29.9488 5.63453C32.9945 8.68022 34.0097 16.8021 34.0097 16.8021C32.6899 16.4975 31.4716 16.2944 30.3549 16.1929C28.2229 15.5838 25.3803 14.2641 22.8421 11.7259C18.7812 7.66503 18.7812 0.55835 18.7812 0.55835C18.7812 0.55835 24.8727 0.55835 29.9488 5.63453Z"/>
<path d="M30.3559 16.1929C32.4878 16.8021 34.0107 16.8021 34.0107 16.8021C34.0107 16.8021 37.0564 15.7869 40.102 15.7869C49.2391 15.7869 59.3913 21.7768 59.3913 35.0762C59.3913 48.2741 51.3711 59.4417 42.1324 59.4417C38.2745 59.4417 34.6197 58.1219 33.6045 57.1066L33.503 57.0051C40.4066 53.5534 45.1781 46.8529 45.1781 39.137H27.6147C27.3102 39.7462 26.5995 40.1522 25.8888 40.1522C25.4828 40.1522 25.0766 40.0507 24.772 39.8477C24.4674 40.6599 23.7568 41.1674 22.8431 41.1674C21.9294 41.1674 21.2188 40.5583 20.9142 39.8477C20.6097 40.0507 20.2036 40.1522 19.7974 40.1522C19.0868 40.1522 18.3761 39.7462 18.0715 39.137H9.13754C8.83297 37.5127 8.62988 35.0762 8.62988 35.0762C8.62988 23.604 15.3304 18.7309 23.3507 16.2944C25.1782 15.7867 27.3102 15.7867 30.3559 16.1929Z"/>
<path d="M42.1319 59.9493C41.5228 59.9493 39.7969 59.9493 37.9695 59.6447C37.6649 59.6447 37.4618 59.3402 37.5634 59.0356C37.5634 58.731 37.868 58.5279 38.1725 58.6295C39.8985 58.9341 41.6243 58.9341 42.1319 58.9341C51.0659 58.9341 58.8832 47.7666 58.8832 35.0763C58.8832 22.1829 49.137 16.2945 40.1014 16.2945C37.1572 16.2945 34.2132 17.3097 34.2132 17.3097C34.1117 17.3097 34.1117 17.3097 34.0101 17.3097C33.7055 17.3097 27.6141 17.2082 22.4365 12.132C18.2741 7.96968 18.2741 0.863004 18.2741 0.558435C18.2741 0.253867 18.4772 0.0507812 18.7818 0.0507812C19.0863 0.0507812 25.1777 0.152265 30.3554 5.22845C32.1828 7.05586 33.2996 10.7107 33.9087 13.3503C35.4316 7.25894 40.6092 4.21326 40.9138 4.11177C41.1169 4.01029 41.4214 4.01029 41.6244 4.31486C41.7259 4.51794 41.7259 4.82251 41.4213 5.02548C41.3198 5.02548 34.9239 8.78179 34.6193 16.0914C35.7361 15.7869 37.9696 15.2792 40.203 15.2792C49.7462 15.2792 60 21.4721 60 35.0762C59.8985 48.5788 51.7766 59.9493 42.1319 59.9493ZM19.2893 1.06609C19.3908 2.79202 19.9999 8.07117 23.1472 11.3199C27.1066 15.2793 31.7766 16.0915 33.4011 16.193C33.0965 14.264 31.9797 8.37573 29.5431 5.93919C25.5838 1.97979 20.9137 1.26917 19.2893 1.06609ZM22.8426 59.9493C10.2538 59.9493 0 50.6092 0 39.1372C0 38.8326 0.203085 38.6295 0.507654 38.6295H18.0711C18.2742 38.6295 18.3757 38.731 18.4772 38.8326C18.8832 39.5432 19.8986 39.8478 20.6092 39.3402C20.7107 39.2388 20.9137 39.2388 21.0152 39.2388C21.1167 39.2388 21.3198 39.4418 21.3198 39.5433C21.5229 40.1525 22.132 40.5585 22.7412 40.5585C23.3503 40.5585 23.9594 40.1525 24.1625 39.5433C24.264 39.4418 24.3656 39.2388 24.4671 39.2388C24.5686 39.2388 24.7717 39.2388 24.8731 39.3402C25.5838 39.8479 26.5991 39.5433 27.0051 38.8326C27.1066 38.6295 27.3097 38.6295 27.4112 38.6295H44.9747C45.2792 38.6295 45.4823 38.8326 45.4823 39.1372C45.6853 50.6093 35.4314 59.9493 22.8426 59.9493ZM1.01519 39.6448C1.31976 50.3047 10.9645 58.9341 22.8426 58.9341C34.7208 58.9341 44.3655 50.3047 44.6701 39.6448H27.9188C27.2082 40.5585 25.9899 40.8631 24.9746 40.457C24.467 41.1676 23.7563 41.6753 22.8426 41.6753C21.9289 41.6753 21.1167 41.1676 20.7107 40.457C19.6955 40.8631 18.4772 40.457 17.7665 39.6448H1.01519ZM22.8426 48.7819C22.0304 48.7819 21.3198 48.0712 21.3198 47.259C21.3198 46.6499 22.132 45.4316 22.4366 44.924C22.6397 44.6194 23.0457 44.6194 23.2488 44.924C23.5534 45.4316 24.3656 46.5483 24.3656 47.259C24.3655 48.0711 23.6549 48.7819 22.8426 48.7819ZM22.8426 46.1422C22.5381 46.6499 22.335 47.0559 22.335 47.259C22.335 47.5636 22.5381 47.7667 22.8426 47.7667C23.1472 47.7667 23.3503 47.5636 23.3503 47.259C23.3503 47.0559 23.1472 46.6499 22.8426 46.1422ZM29.3401 47.1574C28.934 47.1574 28.5278 46.9543 28.2233 46.7514C27.7156 46.2437 27.5126 44.924 27.411 44.3148C27.411 44.1117 27.411 44.0103 27.5125 43.9088C27.614 43.8073 27.8171 43.7057 27.9186 43.8073C28.5277 43.9088 29.8475 44.2133 30.3551 44.6195C30.6597 44.9241 30.7612 45.3301 30.7612 45.7363C30.7612 46.1423 30.5581 46.5485 30.3551 46.8531C30.1523 47.0559 29.7462 47.1574 29.3401 47.1574ZM28.6294 44.924C28.7309 45.4316 28.934 45.9391 29.0355 46.0407C29.2386 46.2438 29.5431 46.2438 29.7461 46.0407C29.8476 45.9393 29.8476 45.8377 29.8476 45.6347C29.8476 45.4317 29.7461 45.3301 29.7461 45.2286C29.6446 45.2285 29.1371 45.0254 28.6294 44.924ZM16.3452 47.1574C15.9392 47.1574 15.533 47.0559 15.2284 46.7514C14.9239 46.4468 14.8224 46.0407 14.8224 45.6346C14.8224 45.2285 15.0255 44.8224 15.2284 44.5178C15.7361 44.0101 17.0558 43.8072 17.665 43.7056C17.8681 43.7056 17.9695 43.7056 18.071 43.807C18.1725 43.9085 18.2741 44.1116 18.1725 44.2131C18.071 44.8222 17.7665 46.142 17.3603 46.6496C17.1573 47.0559 16.7513 47.1574 16.3452 47.1574ZM17.0558 44.924C16.5482 45.0254 16.0406 45.2285 15.939 45.33C15.8376 45.4315 15.8376 45.5331 15.8376 45.7361C15.8376 45.8375 15.939 46.0406 15.939 46.1421C16.1421 46.3452 16.4467 46.3452 16.6497 46.1421C16.7513 45.9391 16.9544 45.4316 17.0558 44.924ZM8.6294 35.5838C8.32483 35.5838 8.12175 35.3807 8.12175 35.0762C8.12175 25.1269 13.0963 18.8325 23.2487 15.8883C23.5533 15.7869 23.7563 15.9898 23.8578 16.1929C23.9593 16.4975 23.7563 16.7006 23.5533 16.802C13.8071 19.6446 9.23854 25.5331 9.23854 35.0762C9.13706 35.3808 8.93397 35.5838 8.6294 35.5838ZM54.8223 31.5229C54.6192 31.5229 54.4163 31.3199 54.3147 31.1169C53.5025 27.7666 51.5736 25.0255 48.9339 23.1981C48.7308 22.995 48.6294 22.6905 48.8324 22.4875C49.0355 22.2845 49.3401 22.1829 49.5431 22.386C52.3857 24.4165 54.4162 27.3606 55.3299 30.9139C55.4314 31.2185 55.2284 31.4216 54.9238 31.5231C54.8223 31.5229 54.8223 31.5229 54.8223 31.5229ZM45.1776 21.2691H45.0761L43.0456 20.7614C42.7411 20.66 42.6396 20.4569 42.6396 20.1523C42.7411 19.8477 42.9442 19.7463 43.2487 19.7463C43.9594 19.8477 44.6701 20.0508 45.3807 20.2539C45.6853 20.3554 45.7868 20.66 45.6853 20.863C45.5838 21.1676 45.3807 21.2691 45.1776 21.2691Z"/>
</g>
<defs>
<clipPath id="rclip0_202_129">
<rect width="60" height="60"/>
</clipPath>
</defs>
</symbol><symbol viewBox="0 0 18 18" id="viber-icon" xmlns="http://www.w3.org/2000/svg">
<path d="M9 0C4.0567 0 0 4.0567 0 9C0 10.6315 0.439865 12.2197 1.274 13.6092L0 18L4.39082 16.726C5.78032 17.5601 7.36853 18 9 18C13.9433 18 18 13.9433 18 9C18 4.0567 13.9433 0 9 0ZM14.6269 12.8028L14.2082 13.2215C13.6158 13.8139 12.2533 13.767 11.3779 13.5979C8.46689 13.0357 5.07307 9.74611 4.41856 6.89735C4.09447 5.48616 4.27341 4.25926 4.74142 3.79111L5.16014 3.37239C5.39127 3.1414 5.76672 3.14168 5.99757 3.37239L7.67271 5.04767C7.7845 5.15945 7.84575 5.30763 7.84575 5.46625C7.84575 5.62486 7.7845 5.77318 7.67271 5.88455L7.25414 6.30368C6.79271 6.7662 6.79271 7.51753 7.25414 7.97896L10.0204 10.7088C10.4832 11.1716 11.2321 11.1721 11.6956 10.7088L12.1143 10.2902C12.3305 10.0728 12.7343 10.0721 12.9522 10.2902L14.6269 11.9649C14.8543 12.1914 14.863 12.5666 14.6269 12.8028Z"/>
</symbol></svg>